PathFileType	4	(X/Y/Z)	C:\Users\Basilio\Documents\Thesis Gigler\squatting_fais\c3dfiles\038\SLS_back_pre2\markers_experimental.trc
DataRate	CameraRate	NumFrames	NumMarkers	Units	OrigDataRate	OrigDataStartFrame	OrigNumFrames
200.000000	200.000000	4	63	mm	200.000000	895	1791
Frame#	Time	FHD			LBHD			RBHD			C7			T10			CLAV			LSHO			LUUPA			LMUPA			LDUPA			LLEP			LMEP			LRAD			LUL			LRFIN			RSHO			RUPA1			RMUPA			RDUPA			RLEP			RMEP			RRAD			RUL			RUFIN			LASI			RASI			USACR			LSACR			RSACR			LTHI1			LTHI2			LTHI3			LTHI4			LLFC			LMFC			LTIB1			LTIB2			LTIB3			LTIB4			LLMAL			LMMAL			LHEE			LMT1			LMT2			LMT5			RTHI			RTHI2			RTHI3			RTHI4			RLFC			RMFC			RTIB1			RTIB2			RTIB3			RTIB4			RLMAL			RMMAL			RHEE			RMT1			RMT2			RMT5			*61			*62			
		X1	Y1	Z1	X2	Y2	Z2	X3	Y3	Z3	X4	Y4	Z4	X5	Y5	Z5	X6	Y6	Z6	X7	Y7	Z7	X8	Y8	Z8	X9	Y9	Z9	X10	Y10	Z10	X11	Y11	Z11	X12	Y12	Z12	X13	Y13	Z13	X14	Y14	Z14	X15	Y15	Z15	X16	Y16	Z16	X17	Y17	Z17	X18	Y18	Z18	X19	Y19	Z19	X20	Y20	Z20	X21	Y21	Z21	X22	Y22	Z22	X23	Y23	Z23	X24	Y24	Z24	X25	Y25	Z25	X26	Y26	Z26	X27	Y27	Z27	X28	Y28	Z28	X29	Y29	Z29	X30	Y30	Z30	X31	Y31	Z31	X32	Y32	Z32	X33	Y33	Z33	X34	Y34	Z34	X35	Y35	Z35	X36	Y36	Z36	X37	Y37	Z37	X38	Y38	Z38	X39	Y39	Z39	X40	Y40	Z40	X41	Y41	Z41	X42	Y42	Z42	X43	Y43	Z43	X44	Y44	Z44	X45	Y45	Z45	X46	Y46	Z46	X47	Y47	Z47	X48	Y48	Z48	X49	Y49	Z49	X50	Y50	Z50	X51	Y51	Z51	X52	Y52	Z52	X53	Y53	Z53	X54	Y54	Z54	X55	Y55	Z55	X56	Y56	Z56	X57	Y57	Z57	X58	Y58	Z58	X59	Y59	Z59	X60	Y60	Z60	X61	Y61	Z61	X62	Y62	Z62	X63	Y63	Z63	

896	4.475000000000001	-126.8930206298828	1544.616577148438	-1078.667236328125	-282.9361877441407	1496.756958007813	-1138.286987304688	-275.5656738281251	1486.517333984375	-993.4749145507815	-341.5839843750001	1333.047973632813	-1055.147216796875	-390.2656860351564	1061.826782226563	-1015.455017089844	-201.2669830322266	1294.8212890625	-1068.716064453125	-272.5768737792969	1342.887573242188	-1200.374145507813	-116.8020706176758	1291.869140625	-1338.006225585938	-89.13012695312501	1325.869384765625	-1311.708862304688	-48.42945098876955	1301.70947265625	-1348.648681640625	13.64202404022217	1306.7236328125	-1352.90576171875	27.84306716918946	1233.517456054688	-1328.6708984375	302.1496887207032	1318.300659179688	-1256.287719726563	308.9846496582032	1334.106567382813	-1326.896728515625	369.0733947753907	1360.611572265625	-1238.863159179688	-243.3313751220704	1347.724731445313	-934.5032348632815	-86.7894744873047	1343.541137695313	-821.3125000000002	-53.14124298095705	1350.030029296875	-856.5773925781252	-17.81819534301758	1342.753784179688	-807.503356933594	55.83633041381837	1344.072998046875	-800.5529785156252	65.34171295166017	1265.228149414063	-811.8162231445315	328.9443359375001	1354.342651367188	-894.6989746093752	341.2012939453126	1369.83349609375	-827.385925292969	405.3412170410157	1395.297241210938	-903.7667236328127	-253.3449249267579	848.8471679687502	-1106.90966796875	-277.4717102050782	866.808776855469	-860.539001464844	-428.061981201172	925.914733886719	-1002.229309082031	-442.2714843750001	896.5762329101565	-1031.287719726563	-448.3254394531251	899.6282958984377	-973.9282226562502	-156.5109252929688	590.3539428710939	-1149.340576171875	-87.27645111083986	540.2509155273439	-1137.008422851563	-56.76268386840822	566.3603515625001	-1107.348876953125	-88.91070556640626	481.2733154296876	-1119.482666015625	-70.68795013427736	432.3291320800782	-1102.152221679688	-78.17829895019533	440.812469482422	-989.8411254882815	-134.2033233642578	273.6787109375001	-1006.951110839844	-189.7380828857422	252.4153289794922	-1074.457397460938	-164.7395477294922	233.6016998291016	-1038.749877929688	-224.7172241210938	183.7932281494141	-1004.702087402344	-368.8133544921876	118.1178894042969	-1033.240112304688	-332.5255126953126	128.2303619384766	-956.1340332031252	-432.9635620117189	101.0637435913086	-978.9709472656252	-232.0450286865235	42.49452590942384	-971.6363525390627	-223.3636169433594	46.92812728881837	-1021.374450683594	-269.6420898437501	39.50047302246094	-1068.250854492188	-339.2893676757813	597.9736328125001	-789.3941650390627	-306.1983947753907	540.5740966796876	-778.7127075195315	-273.1064758300782	538.7234497070314	-782.7463378906252	-338.9917907714844	460.9358825683595	-786.1072387695315	-343.0865478515626	356.5498962402344	-794.220886230469	-341.5043640136719	346.4733581542969	-908.1024169921877	-475.3026733398439	247.2848663330079	-823.0299072265627	-578.4514160156251	296.7487182617188	-798.1284790039065	-559.0869750976564	253.2958679199219	-804.1729125976565	-601.5612182617189	226.2467651367188	-836.4797363281252	-735.5625610351564	250.3488769531251	-819.2338867187502	-714.3264770507814	219.8756713867188	-894.8738403320315	-761.5654907226564	304.8171081542969	-891.1795654296877	-788.9761962890627	89.95033264160158	-886.9141235351565	-797.7579345703127	89.64885711669923	-838.3328857421877	-826.4497680664065	134.9310455322266	-803.8166503906252	nan	nan	nan	nan	nan	nan	
897	4.48	-126.6771240234375	1543.928100585938	-1078.438598632813	-282.6787719726563	1495.950561523438	-1138.118408203125	-275.1053771972657	1485.834228515625	-993.5784301757815	-341.2344360351563	1332.289794921875	-1054.983032226563	-390.0682067871095	1061.321411132813	-1015.349731445313	-200.8114471435547	1293.910766601563	-1068.642700195313	-272.4311523437501	1342.241943359375	-1200.319702148438	-116.543930053711	1291.429931640625	-1338.009155273438	-88.85110473632814	1325.43310546875	-1311.782836914063	-48.31676101684572	1301.216552734375	-1348.68212890625	13.42315196990967	1306.523803710938	-1352.922729492188	27.97649955749512	1233.074462890625	-1328.886108398438	302.2744445800782	1317.710083007813	-1256.69921875	309.2955932617188	1333.485717773438	-1326.931396484375	369.4262390136719	1359.838745117188	-1238.864013671875	-243.0237884521485	1347.003540039063	-934.5364990234377	-86.27821350097658	1342.8662109375	-821.3447875976565	-52.69684219360353	1349.229248046875	-856.5649414062502	-17.4889030456543	1342.156127929688	-807.513366699219	56.13753890991212	1343.298583984375	-800.6392211914065	65.86094665527345	1264.08154296875	-811.7867431640627	329.2545471191407	1353.541870117188	-894.8961181640627	341.5381774902344	1369.225463867188	-827.5737304687502	405.5810852050782	1394.75	-903.9774169921877	-253.2264862060547	848.063659667969	-1107.180541992188	-277.6235351562501	866.0533447265627	-860.545104980469	-428.1807861328126	925.7426757812502	-1002.189880371094	-442.3614196777345	895.9808349609377	-1031.33837890625	-448.4112243652345	899.1115722656252	-973.9174804687502	-156.2742614746094	590.0407104492189	-1149.101806640625	-86.99559020996095	540.1036376953126	-1136.736938476563	-56.64277648925783	566.3167114257814	-1106.98291015625	-88.62057495117189	481.013153076172	-1119.139038085938	-70.20619964599611	432.097381591797	-1101.84326171875	-77.92382812500001	440.5776367187501	-989.497253417969	-134.0581970214844	273.4343566894532	-1006.7353515625	-189.9613189697266	252.6814575195313	-1074.059204101563	-164.58349609375	233.3847808837891	-1038.364990234375	-224.6728973388672	183.7815704345703	-1004.515808105469	-368.7433471679688	118.1561889648438	-1033.139526367188	-332.5789184570313	128.1830596923828	-956.0649414062502	-432.9084777832032	101.0721893310547	-978.9658813476565	-232.0426025390626	42.49628829956055	-971.5161132812502	-223.3863983154297	47.01223373413087	-1021.385131835938	-269.6117553710938	39.61812210083009	-1068.22998046875	-339.4447021484376	597.2746582031251	-789.539489746094	-306.2512817382813	539.7999267578126	-779.2564697265627	-273.1313476562501	537.8449707031251	-783.0565185546877	-339.0881958007813	460.1674194335939	-786.4087524414065	-343.3093566894532	355.8119201660157	-794.4664306640627	-341.8312377929688	345.8875122070313	-908.4831542968752	-475.6241149902345	246.6863861083985	-823.2454223632815	-578.6275634765626	296.3763427734376	-798.2161254882815	-559.3638305664064	252.8718414306641	-804.297302246094	-602.0084838867189	225.8959655761719	-836.6711425781252	-735.8156738281251	250.2551727294922	-819.2346801757815	-714.7315063476564	219.7968750000001	-894.9437255859377	-761.7987670898439	304.8567199707032	-891.0355224609377	-789.7344970703127	89.87525177001955	-887.0801391601565	-798.211608886719	89.71782684326173	-838.6737060546877	-826.9748535156252	134.9444732666016	-803.9628906250002	nan	nan	nan	nan	nan	nan	
898	4.485	-126.4804458618164	1543.121948242188	-1078.282836914063	-282.3328247070313	1495.276977539063	-1137.938110351563	-274.7734069824219	1485.05029296875	-993.4058227539065	-340.9866027832032	1331.755004882813	-1054.893188476563	-389.9673767089845	1060.759887695313	-1015.39013671875	-200.8500366210938	1293.282104492188	-1068.473022460938	-272.0706481933594	1341.73291015625	-1200.264526367188	-116.2769546508789	1290.8408203125	-1338.110717773438	-88.76833343505861	1325.20703125	-1312.30322265625	-48.15008926391603	1300.71923828125	-1348.712036132813	13.75555324554444	1305.962036132813	-1352.731567382813	28.20409393310548	1232.500366210938	-1328.937744140625	302.2240600585938	1317.342163085938	-1256.835693359375	309.5611572265626	1332.900390625	-1327.02490234375	369.6592407226563	1359.167846679688	-1238.813842773438	-242.7321319580079	1346.297485351563	-934.5300903320315	-85.83058929443361	1341.74169921875	-821.3776855468752	-52.31846237182619	1348.239379882813	-856.6041259765627	-17.19208908081055	1341.207275390625	-807.626647949219	56.49591064453126	1342.506225585938	-800.6936035156252	66.4097137451172	1263.846069335938	-812.0020751953127	329.5437622070313	1352.947875976563	-895.1153564453127	341.9572448730469	1368.633056640625	-827.9246826171877	405.9921264648439	1393.880615234375	-903.9488525390627	-253.7927246093751	847.5740356445315	-1106.969970703125	-277.7724914550782	865.2258300781252	-860.643005371094	-428.2622375488282	925.2235107421877	-1002.180114746094	-442.4661865234376	895.3894653320315	-1031.424926757813	-448.6707458496095	898.4851074218752	-974.1497192382815	-156.1446838378907	589.6871337890626	-1148.908813476563	-86.80571746826173	539.9294433593751	-1136.39013671875	-56.49780654907228	566.1488647460939	-1106.67138671875	-88.33102416992189	480.7710571289064	-1118.848510742188	-69.96812438964845	431.925994873047	-1101.557006835938	-77.80239105224611	440.2619628906251	-989.0935058593752	-133.97802734375	273.2347106933594	-1006.422546386719	-189.7817840576172	252.5194854736329	-1073.7900390625	-164.4323272705078	233.5623779296876	-1037.883666992188	-224.6341552734376	183.6843566894532	-1004.239379882813	-368.7957458496094	118.1948471069336	-1033.08544921875	-332.1121520996094	128.5308227539063	-955.5631103515627	-432.9132080078126	101.0665435791016	-978.9592895507815	-232.0734558105469	42.47711563110352	-971.518005371094	-223.3070831298829	47.06131744384766	-1021.325744628906	-269.6397399902344	39.61665344238282	-1068.195922851563	-339.5850830078126	596.6184692382814	-789.6428833007815	-306.3211364746094	538.8632202148439	-779.5327148437502	-273.2926940917969	537.3091430664064	-783.462097167969	-339.3927917480469	459.4510803222657	-786.6699829101565	-343.6210937500001	354.6062011718751	-794.9119262695315	-342.1464538574219	345.4515380859376	-908.8760375976565	-475.9292602539064	246.0858459472657	-823.5037841796877	-578.8811035156251	296.1063232421876	-798.349548339844	-559.6412963867189	252.5397338867188	-804.450378417969	-602.3862915039064	225.6952056884766	-836.8822021484377	-736.0731811523439	250.106185913086	-819.3186035156252	-715.1921386718751	219.7603912353516	-894.9915771484377	-761.9965209960939	304.8553161621094	-890.9666748046877	-790.5357666015627	89.80522918701173	-887.1248168945315	-798.885437011719	89.61476898193361	-838.979431152344	-827.586853027344	135.0455322265625	-804.050964355469	nan	nan	nan	nan	nan	nan	
899	4.49	-126.0219879150391	1542.567016601563	-1078.158935546875	-281.9585571289063	1494.650512695313	-1137.818725585938	-274.5009460449219	1484.443115234375	-993.225769042969	-340.7131958007813	1331.121948242188	-1054.776123046875	-389.9656066894532	1060.258911132813	-1015.326049804688	-200.6989288330079	1292.486938476563	-1068.336547851563	-271.7607727050782	1341.154052734375	-1200.124755859375	-116.0210647583008	1290.390258789063	-1338.197631835938	-88.58695220947267	1324.794677734375	-1312.33984375	-47.95370101928712	1300.289306640625	-1348.802490234375	13.94802474975586	1305.44580078125	-1352.9013671875	28.40356254577637	1231.953369140625	-1328.932861328125	302.5699157714844	1316.485473632813	-1256.822631835938	309.7593688964844	1332.447265625	-1327.0283203125	369.7728576660157	1358.580688476563	-1238.804931640625	-242.5394897460938	1345.509887695313	-934.2761840820315	-85.49322509765626	1341.121337890625	-821.3618164062502	-52.39120101928712	1347.88818359375	-856.6373291015627	-16.80718231201172	1340.405639648438	-807.777770996094	56.82363891601564	1341.850463867188	-800.7117919921877	66.72478485107423	1263.265014648438	-812.2319946289065	329.9367370605469	1351.99072265625	-895.4405517578127	342.2106018066407	1367.791748046875	-827.9849853515627	406.2369689941407	1393.2802734375	-904.2407226562502	-254.0180053710938	846.2963867187502	-1106.960815429688	-277.9427490234376	864.3679809570315	-860.6909790039065	-428.3753356933595	924.2686767578127	-1002.198791503906	-443.087127685547	894.7741699218752	-1031.630859375	-448.8400268554689	897.797546386719	-974.3521728515627	-155.9062652587891	589.3037109375001	-1148.639526367188	-86.77326965332033	539.5979003906251	-1136.070434570313	-56.35618591308595	565.9315795898439	-1106.3759765625	-88.04812622070314	480.5531005859376	-1118.60107421875	-69.36734008789064	432.1427612304689	-1101.201049804688	-77.64302825927736	439.9826049804689	-988.7348632812502	-133.7683868408203	272.9815368652344	-1006.12939453125	-189.6642150878907	252.4033966064454	-1073.634399414063	-164.341049194336	233.3977966308594	-1037.587890625	-224.6043395996094	183.5833282470703	-1004.056579589844	-368.7428283691407	118.1766357421875	-1033.017333984375	-332.1103210449219	128.5448455810547	-955.519714355469	-432.9560546875001	101.0687255859375	-978.9980468750002	-232.0494842529297	42.48786163330079	-971.5251464843752	-223.3378601074219	47.02945709228516	-1021.330505371094	-269.6173095703126	39.64498138427735	-1068.162719726563	-339.7462463378907	595.9615478515626	-789.971618652344	-306.5079956054688	538.1225585937501	-779.777038574219	-273.5109252929688	536.4841918945314	-783.885437011719	-339.5139160156251	458.7026977539064	-786.945983886719	-343.5559692382813	354.3479614257813	-795.2082519531252	-342.5204162597657	344.9134521484376	-909.3416748046877	-476.2132263183595	245.5211334228516	-823.695495605469	-578.9358520507814	296.0861206054688	-798.4555664062502	-560.0148315429689	252.0594329833985	-804.6890258789065	-602.8727416992189	225.4475860595704	-836.8972167968752	-736.3378295898439	249.9456481933594	-819.2898559570315	-715.5870361328126	219.6880340576172	-895.092956542969	-762.2204589843751	304.8198852539063	-890.8977661132815	-791.213562011719	89.81353759765626	-887.154479980469	-799.6850585937502	89.68434143066408	-839.0245361328127	-828.160583496094	135.0667419433594	-804.0455322265627	nan	nan	nan	nan	nan	nan	
